<svg xmlns="http://www.w3.org/2000/svg" viewBox="0 0 192 172" enable-background="new 0 0 192 172"><g fill="#e519a1"><path opacity=".2" d="m44 134c0 4 4 12 6 12 2.236 0 0-6 2-6s2 6 4 6 4-8 4-12c0-7-16-5-16 0"/><path opacity=".2" d="m148 134c0 4-4 12-6 12-2.236 0 0-6-2-6s-2 6-4 6-4-8-4-12c0-7 16-5 16 0"/><path d="m104.48 99.01c-.121.205-.274.383-.481.486-2 1-14 1-16 0-.22-.086-.382-.264-.505-.48-15.776 3.822-27.495 18.03-27.495 34.98 0 19.883 16.12 36 36 36s36-16.12 36-36c0-16.96-11.73-31.17-27.519-34.986"/></g><path opacity=".6" d="m81 140c6 4 24 4 30 0 1.664-1.109 3.494.672 2 2-9 8-26 8-34 0-1.414-1.414.336-3.109 2-2"/><circle opacity=".1" cx="72" cy="134" r="4"/><circle opacity=".1" cx="120" cy="134" r="4"/><ellipse opacity=".6" cx="83.5" cy="124" rx="3.5" ry="4"/><ellipse opacity=".6" cx="108.5" cy="124" rx="3.5" ry="4"/><path fill="#17cfbf" d="m151 68c-10-2-14-12-26-12-13.338 0-20.421 8.825-23.936 19.338 6.02-28.376 21.509-34.31-5.064-73.34-26.573 39.03-11.08 44.962-5.064 73.34-3.515-10.513-10.598-19.338-23.936-19.338-12 0-16 10-26 12-9.806 1.961-20-2-24-12 0 28 20.16 32.973 32 31 12-2 16-9 26-9 8.08 0 13.548 3.924 15.348 11.763 3.098-.516 8.207-.516 11.305 0 1.799-7.839 7.265-11.763 15.347-11.763 10 0 14 7 26 9 11.837 1.973 32-3 32-31-4 10-14.194 13.961-24 12"/><g fill="#fafad1"><path opacity=".6" d="m123 65c-14.943 0-22.988 13.09-25.292 24.406.705.025 1.394.065 2.042.123 2.564-10.774 11.496-18.529 23.25-18.529 14 0 26 15 37 5-16 4-21-11-37-11"/><path opacity=".6" d="m97.05 89.39c.494-34.35 4.604-42.774-1.049-65.39-5.653 22.613-1.543 31.03-1.049 65.39.696-.015 1.402-.015 2.098 0"/><path opacity=".6" d="m94.29 89.41c-2.304-11.313-10.349-24.406-25.292-24.406-16 0-21 15-37 11 11 10 23-5 37-5 11.754 0 20.686 7.755 23.25 18.529.648-.057 1.337-.097 2.042-.123"/></g><path fill="#17cfbf" d="m130.91 33.553c-2.185-.851-4.719-.743-6.907.52-3.795 2.192-5.11 7.02-2.976 10.834-6.204 4.243-12.04 10.405-16.514 18.19-1.251 3.651-2.473 7.652-3.446 12.242 1.017-3.04 2.343-5.929 4.02-8.515 3.434-7.495 8.651-14.861 16.408-21.17 2.365 3.315 6.906 4.355 10.506 2.276 2.188-1.264 3.549-3.404 3.904-5.721-2.729-.735-5.722-5.924-4.996-8.655"/><path fill="#e519a1" d="m130.91 33.549c3.465-2 4.984-2.878 5.484-2.01s-2.964 2.866-2.464 3.732 4.829-1.635 5.33-.769c.5.865-3.83 3.366-3.33 4.232s3.964-1.135 4.464-.268c.5.865-1.021 1.743-4.484 3.744-2.732-.73-5.731-5.928-5-8.659"/><path fill="#17cfbf" d="m87.49 63.1c-4.474-7.784-10.31-13.947-16.514-18.19 2.134-3.813.819-8.642-2.978-10.834-2.188-1.263-4.723-1.37-6.906-.52.727 2.731-2.267 7.92-4.997 8.656.355 2.317 1.717 4.458 3.904 5.721 3.601 2.079 8.141 1.039 10.506-2.277 7.758 6.309 12.976 13.675 16.409 21.17 1.679 2.585 3 5.475 4.02 8.515-.972-4.59-2.194-8.591-3.445-12.242"/><path fill="#e519a1" d="m61.09 33.549c-3.465-2-4.984-2.878-5.484-2.01s2.964 2.866 2.464 3.732-4.83-1.635-5.33-.769c-.5.865 3.83 3.366 3.33 4.232s-3.964-1.135-4.465-.268c-.499.865 1.021 1.743 4.485 3.744 2.732-.73 5.731-5.928 5-8.659"/><path d="m104 99.5c-2 1-14 1-16 0-1-.393-1-2.5 0-3-.816-.469-1-2.5 0-3-1-.5-1-2.5 0-3 2-1.5 14-1.5 16 0 1 .5 1 2.5 0 3 1 .5 1 2.5 0 3 1 .5 1 2.5 0 3"/></svg>