<?xml version="1.0" encoding="utf-8"?>
<!-- Generator: Adobe Illustrator 15.1.0, SVG Export Plug-In . SVG Version: 6.00 Build 0)  -->
<!DOCTYPE svg PUBLIC "-//W3C//DTD SVG 1.1//EN" "http://www.w3.org/Graphics/SVG/1.1/DTD/svg11.dtd">
<svg version="1.1" id="Layer_1" xmlns="http://www.w3.org/2000/svg" xmlns:xlink="http://www.w3.org/1999/xlink" x="0px" y="0px"
	 width="192px" height="208px" viewBox="0 0 192 208" enable-background="new 0 0 192 208" xml:space="preserve">
<g id="mandragora_x5F_happy_x5F_01">
	<path id="complexion_1_" opacity="0.1" fill="#E519A1" d="M151,137c-0.376-1.505-13.201-10.931-21.236-15.509
		c-4.123-11.126-13.586-19.658-25.277-22.484c-0.122,0.209-0.277,0.389-0.486,0.493c-2,1-14,1-16,0
		c-0.219-0.086-0.381-0.264-0.504-0.479c-11.289,2.736-20.5,10.789-24.824,21.364C54.676,125.136,41.383,135.468,41,137
		c-0.5,2,6,1,6,3s-5.5,1-5,3c0.356,1.427,11.396,4.379,19.148,5.954C64.15,169.896,72,189.146,72,194c-4,2-9,6-8,7
		c1,1.001,8.419-2.581,10-1c1,1-3,5-2,6s15-3,17-5s3-15,7-15s5,13,7,15s16,6,17,5s-3-5-2-6c1.581-1.581,9,2.001,10,1c1-1-4-5-8-7
		c0-4.789,7.641-23.598,10.727-44.215c7.758-1.86,18.915-5.351,19.273-6.785c0.5-2-5-1-5-3S151.5,139,151,137z"/>
	<path id="mouth_2_" opacity="0.6" d="M81,140c5,2,24,2,30,0c1.897-0.633,2.673,0.117,2,2c-5,14-29,14-34,0
		C78.327,140.117,79.144,139.257,81,140z"/>
	<circle id="cheek-right_6_" opacity="0.1" cx="72" cy="134" r="4"/>
	<circle id="cheek-left_6_" opacity="0.1" cx="120" cy="134" r="4"/>
	<ellipse id="eye-right_6_" opacity="0.6" cx="83.5" cy="124" rx="3.5" ry="4"/>
	<ellipse id="eye-left_6_" opacity="0.6" cx="108.5" cy="124" rx="3.5" ry="4"/>
	<path id="twist_8_" opacity="0.4" d="M104,99.5c-2,1-14,1-16,0c-1-0.393-1-2.5,0-3c-1-0.5-1-2.5,0-3c-1-0.5-1-2.5,0-3
		c2-1.5,14-1.5,16,0c1,0.5,1,2.5,0,3c1,0.5,1,2.5,0,3C105,97,105,99,104,99.5z"/>
	<path id="twist_4_" opacity="0.2" d="M104,96.5c-2,1-14,1-16,0c-1-0.5-1-2.5,0-3c2-1,14-1,16,0C105,94,105,96,104,96.5z"/>
	<path id="leaf_6_" opacity="0.6" fill="#17CFBF" d="M151,68c-10-2-14-12-26-12c-13.338,0-20.421,8.825-23.936,19.338
		C107.083,46.962,122.573,41.029,96,2c-26.573,39.029-11.083,44.962-5.064,73.338C87.421,64.825,80.338,56,67,56c-12,0-16,10-26,12
		c-9.806,1.961-21-2-25-12c0,28,21.163,32.973,33,31c12-2,16-9,26-9c8.082,0,13.548,3.924,15.348,11.764
		c3.098-0.517,8.207-0.517,11.305,0C103.452,81.924,108.918,78,117,78c10,0,14,7,26,9c11.837,1.973,33-3,33-31
		C172,66,160.806,69.961,151,68z"/>
	<path id="veining-right_6_" opacity="0.6" fill="#FAFAD2" d="M94.292,89.406C91.988,78.093,83.943,65,69,65c-16,0-21,15-37,11
		c11,10,23-5,37-5c11.754,0,20.686,7.756,23.25,18.529C92.898,89.472,93.587,89.432,94.292,89.406z"/>
	<path id="veining-center_6_" opacity="0.6" fill="#FAFAD2" d="M97.049,89.387C97.543,55.033,101.653,46.613,96,24
		c-5.653,22.613-1.543,31.033-1.049,65.387C95.647,89.372,96.353,89.372,97.049,89.387z"/>
	<path id="veining-left_6_" opacity="0.6" fill="#FAFAD2" d="M123,65c-14.943,0-22.988,13.093-25.292,24.406
		c0.705,0.025,1.394,0.065,2.042,0.123C102.314,78.756,111.246,71,123,71c14,0,26,15,37,5C144,80,139,65,123,65z"/>
	<path id="stalk-right_6_" opacity="0.2" fill="#17CFBF" d="M87.489,63.096c-4.474-7.784-10.31-13.947-16.514-18.189
		c2.134-3.812,0.819-8.643-2.978-10.834c-2.188-1.263-4.723-1.37-6.906-0.52c0.727,2.73-2.267,7.92-4.997,8.656
		c0.355,2.316,1.717,4.457,3.904,5.721c3.601,2.079,8.141,1.039,10.506-2.277c7.758,6.31,12.976,13.676,16.409,21.171
		c1.679,2.585,3.005,5.475,4.021,8.515C89.962,70.748,88.74,66.746,87.489,63.096z"/>
	<path id="stalk-left_6_" opacity="0.2" fill="#17CFBF" d="M130.907,33.553c-2.185-0.851-4.719-0.743-6.907,0.52
		c-3.795,2.192-5.11,7.021-2.976,10.834c-6.204,4.243-12.04,10.406-16.514,18.189c-1.251,3.65-2.473,7.652-3.446,12.242
		c1.017-3.04,2.343-5.93,4.021-8.515c3.434-7.495,8.651-14.86,16.408-21.17c2.365,3.315,6.906,4.355,10.506,2.276
		c2.188-1.264,3.549-3.404,3.904-5.721C133.174,41.473,130.181,36.283,130.907,33.553z"/>
	<path id="flower-right_6_" fill="#E519A1" d="M61.091,33.549c-3.465-2.001-4.984-2.878-5.484-2.012s2.964,2.866,2.464,3.732
		s-4.83-1.635-5.33-0.769c-0.5,0.865,3.83,3.366,3.33,4.232s-3.964-1.135-4.465-0.268c-0.499,0.865,1.021,1.743,4.485,3.744
		C58.823,41.478,61.822,36.28,61.091,33.549z"/>
	<path id="flower-left_6_" fill="#E519A1" d="M130.908,33.549c3.465-2.001,4.984-2.878,5.484-2.012s-2.964,2.866-2.464,3.732
		s4.829-1.635,5.33-0.769c0.5,0.865-3.83,3.366-3.33,4.232s3.964-1.135,4.464-0.268c0.5,0.865-1.021,1.743-4.484,3.744
		C133.176,41.478,130.177,36.28,130.908,33.549z"/>
	<path id="shadow_3_" opacity="0.05" fill="#E519A1" d="M117,78c10,0,14,7,26,9c11.837,1.973,33-3,33-31c-4,10-15.194,13.961-25,12
		c-10-2-14-12-26-12c-9.48,0-15.79,4.47-19.914,10.824v-0.001c3.434-7.495,8.651-14.86,16.408-21.17
		c2.365,3.315,6.906,4.355,10.506,2.276c2.188-1.264,3.549-3.404,3.904-5.721c-0.113-0.03-0.227-0.079-0.34-0.124
		c0.115,0.045,0.23,0.095,0.344,0.125c3.463-2.001,4.984-2.879,4.484-3.744c-0.5-0.867-3.964,1.134-4.464,0.268
		s3.83-3.367,3.33-4.232c-0.501-0.866-4.83,1.635-5.33,0.769s2.964-2.866,2.464-3.732s-2.02,0.011-5.484,2.012
		c-0.019,0.068-0.024,0.146-0.038,0.217c0.014-0.07,0.019-0.146,0.037-0.213c-2.185-0.851-4.719-0.743-6.907,0.52
		c-3.795,2.192-5.11,7.021-2.976,10.834c-6.204,4.243-12.04,10.405-16.513,18.188C110.994,44.178,118.273,34.715,96,2
		c0,0-0.143,20.006,0,22c1,14,1,43.999,0,65.375v0.001c-0.054,1.154-0.049,2.057,0,2.769v8.105c0.32,0,0.64-0.003,0.958-0.007
		C107.554,126.878,99.889,176.279,96,186c4,0,5,13,7,15s16,6,17,5s-3-5-2-6c1.581-1.581,9,2.001,10,1c1-1-4-5-8-7
		c0-4.789,7.641-23.598,10.727-44.215c7.758-1.86,18.915-5.351,19.273-6.785c0.5-2-5-1-5-3s6.5-1,6-3
		c-0.376-1.505-13.201-10.931-21.236-15.509c-4.123-11.126-13.586-19.658-25.277-22.484c0.459-0.788,0.305-2.111-0.486-2.507
		c1-0.5,1-2.5,0-3c1-0.5,1-2.5,0-3c-0.413-0.31-1.258-0.555-2.348-0.736C103.452,81.924,108.918,78,117,78z"/>
</g>
</svg>
