<?xml version="1.0" encoding="utf-8"?>
<!-- Generator: Adobe Illustrator 15.1.0, SVG Export Plug-In . SVG Version: 6.00 Build 0)  -->
<!DOCTYPE svg PUBLIC "-//W3C//DTD SVG 1.1//EN" "http://www.w3.org/Graphics/SVG/1.1/DTD/svg11.dtd">
<svg version="1.1" id="Layer_1" xmlns="http://www.w3.org/2000/svg" xmlns:xlink="http://www.w3.org/1999/xlink" x="0px" y="0px"
	 width="192px" height="168px" viewBox="0 0 192 168" enable-background="new 0 0 192 168" xml:space="preserve">
<g id="mandragora_x5F_hidden_x5F_00">
	<g id="mandragora">
		<defs>
			<rect id="mask" x="0" width="192" height="132"/>
		</defs>
		<clipPath id="mask_1_">
			<use xlink:href="#mask"  overflow="visible"/>
		</clipPath>
		<path id="complexion_3_" opacity="0.1" clip-path="url(#mask_1_)" fill="#E519A1" d="M104.481,97.014
			c-0.121,0.205-0.274,0.382-0.481,0.486c-2,1-14,1-16,0c-0.22-0.086-0.382-0.264-0.505-0.48C71.719,100.842,60,115.049,60,132
			c0,12.417,2.737,25.285,5.597,36h60.806c2.859-10.715,5.597-23.583,5.597-36C132,115.04,120.27,100.829,104.481,97.014z"/>
		<path id="mouth_1_" opacity="0.6" clip-path="url(#mask_1_)" d="M80,135c6.261-3.131,25.739-3.131,32,0c2,1,2,3.001,2,5
			c0,24-36,24-36,0C78,138,78,136,80,135z"/>
		<circle id="cheek-right_1_" opacity="0.1" clip-path="url(#mask_1_)" cx="72" cy="132" r="4"/>
		<circle id="cheek-left_1_" opacity="0.1" clip-path="url(#mask_1_)" cx="120" cy="132" r="4"/>
		<ellipse id="eye-right_1_" opacity="0.6" clip-path="url(#mask_1_)" cx="83.5" cy="122" rx="3.5" ry="4"/>
		<ellipse id="eye-left_1_" opacity="0.6" clip-path="url(#mask_1_)" cx="108.5" cy="122" rx="3.5" ry="4"/>
		<path id="twist_7_" opacity="0.4" clip-path="url(#mask_1_)" d="M104,97.5c-2,1-14,1-16,0c-1-0.393-1-2.5,0-3c-1-0.5-1-2.5,0-3
			c-1-0.5-1-2.5,0-3c2-1.5,14-1.5,16,0c1,0.5,1,2.5,0,3c1,0.5,1,2.5,0,3C105,95,105,97,104,97.5z"/>
		<path id="twist_6_" opacity="0.2" clip-path="url(#mask_1_)" d="M104,94.5c-2,1-14,1-16,0c-1-0.5-1-2.5,0-3c2-1,14-1,16,0
			C105,92,105,94,104,94.5z"/>
		<path id="leaf_1_" opacity="0.6" clip-path="url(#mask_1_)" fill="#17CFBF" d="M151,66c-10-2-14-12-26-12
			c-13.338,0-20.421,8.825-23.936,19.338C107.083,44.962,122.573,39.03,96,0c-26.573,39.03-11.083,44.962-5.064,73.338
			C87.421,62.825,80.338,54,67,54c-12,0-16,10-26,12c-9.806,1.961-21-2-25-12c0,28,21.163,32.973,33,31c12-2,16-9,26-9
			c8.082,0,13.548,3.924,15.348,11.763c3.098-0.516,8.207-0.516,11.305,0C103.452,79.924,108.918,76,117,76c10,0,14,7,26,9
			c11.837,1.973,33-3,33-31C172,64,160.806,67.961,151,66z"/>
		<path id="veining-right_1_" opacity="0.6" clip-path="url(#mask_1_)" fill="#FAFAD2" d="M94.292,87.406
			C91.988,76.093,83.943,63,69,63c-16,0-21,15-37,11c11,10,23-5,37-5c11.754,0,20.686,7.755,23.25,18.529
			C92.898,87.472,93.587,87.432,94.292,87.406z"/>
		<path id="veining-center_1_" opacity="0.6" clip-path="url(#mask_1_)" fill="#FAFAD2" d="M97.049,87.387
			C97.543,53.033,101.653,44.613,96,22c-5.653,22.613-1.543,31.033-1.049,65.387C95.647,87.372,96.353,87.372,97.049,87.387z"/>
		<path id="veining-left_1_" opacity="0.6" clip-path="url(#mask_1_)" fill="#FAFAD2" d="M123,63
			c-14.943,0-22.988,13.093-25.292,24.406c0.705,0.025,1.394,0.065,2.042,0.123C102.314,76.755,111.246,69,123,69c14,0,26,15,37,5
			C144,78,139,63,123,63z"/>
		<path id="stalk-right_1_" opacity="0.2" clip-path="url(#mask_1_)" fill="#17CFBF" d="M87.489,61.096
			c-4.474-7.784-10.31-13.947-16.514-18.189c2.134-3.813,0.819-8.642-2.978-10.834c-2.188-1.263-4.723-1.37-6.906-0.52
			c0.727,2.731-2.267,7.92-4.997,8.656c0.355,2.317,1.717,4.458,3.904,5.721c3.601,2.079,8.141,1.039,10.506-2.277
			c7.758,6.309,12.976,13.675,16.409,21.17c1.679,2.585,3.005,5.475,4.021,8.515C89.962,68.748,88.74,64.747,87.489,61.096z"/>
		<path id="stalk-left_1_" opacity="0.2" clip-path="url(#mask_1_)" fill="#17CFBF" d="M130.907,31.553
			c-2.185-0.851-4.719-0.743-6.907,0.52c-3.795,2.192-5.11,7.021-2.976,10.834c-6.204,4.243-12.04,10.405-16.514,18.189
			c-1.251,3.651-2.473,7.652-3.446,12.242c1.017-3.04,2.343-5.929,4.021-8.515c3.434-7.495,8.651-14.861,16.408-21.17
			c2.365,3.315,6.906,4.355,10.506,2.276c2.188-1.264,3.549-3.404,3.904-5.721C133.174,39.473,130.181,34.284,130.907,31.553z"/>
		<path id="flower-right_1_" opacity="0.6" clip-path="url(#mask_1_)" fill="#E519A1" d="M61.091,31.549
			c-3.465-2.001-4.984-2.878-5.484-2.012s2.964,2.866,2.464,3.732s-4.83-1.635-5.33-0.769c-0.5,0.865,3.83,3.366,3.33,4.232
			s-3.964-1.135-4.465-0.268c-0.499,0.865,1.021,1.743,4.485,3.744C58.823,39.478,61.822,34.28,61.091,31.549z"/>
		<path id="flower-left_1_" opacity="0.6" clip-path="url(#mask_1_)" fill="#E519A1" d="M130.908,31.549
			c3.465-2.001,4.984-2.878,5.484-2.012s-2.964,2.866-2.464,3.732s4.829-1.635,5.33-0.769c0.5,0.865-3.83,3.366-3.33,4.232
			s3.964-1.135,4.464-0.268c0.5,0.865-1.021,1.743-4.484,3.744C133.176,39.478,130.177,34.28,130.908,31.549z"/>
		<g id="shadow_7_" opacity="0.05" clip-path="url(#mask_1_)">
			<path fill="#E519A1" d="M117,76c10,0,14,7,26,9c11.837,1.973,33-3,33-31c-4,10-15.194,13.961-25,12c-10-2-14-12-26-12
				c-9.48,0-15.79,4.47-19.914,10.824v-0.001c3.434-7.495,8.651-14.86,16.408-21.17c2.365,3.315,6.906,4.355,10.506,2.276
				c2.188-1.264,3.549-3.404,3.904-5.721c-0.113-0.03-0.227-0.079-0.34-0.124c0.115,0.045,0.23,0.095,0.344,0.125
				c3.463-2.001,4.984-2.879,4.484-3.744c-0.5-0.867-3.964,1.134-4.464,0.268s3.83-3.367,3.33-4.232
				c-0.501-0.866-4.83,1.635-5.33,0.769s2.964-2.866,2.464-3.732s-2.02,0.011-5.484,2.012c-0.019,0.068-0.024,0.146-0.038,0.217
				c0.014-0.07,0.019-0.146,0.037-0.213c-2.185-0.851-4.719-0.743-6.907,0.52c-3.795,2.192-5.11,7.021-2.976,10.834
				c-6.204,4.243-12.04,10.405-16.513,18.188C110.994,42.178,118.273,32.715,96,0c0,0-0.143,20.006,0,22c1,14,1,43.999,0,65.375
				v0.001c-0.054,1.154-0.049,2.057,0,2.769v8.105c0.321,0,0.642-0.003,0.961-0.007c7.649,19.22,5.779,50.288,2.689,69.757h26.75
				c2.859-10.721,5.6-23.58,5.6-36c0-16.959-11.729-31.168-27.517-34.989c0.463-0.788,0.309-2.115-0.483-2.511c1-0.5,1-2.5,0-3
				c1-0.5,1-2.5,0-3c-0.413-0.31-1.258-0.555-2.348-0.736C103.452,79.924,108.918,76,117,76z"/>
			<path fill="#E519A1" d="M136,144c2,0,2-6,4-6s-0.236,6,2,6c2,0,6-8,6-12c0-5-16-7-16,0C132,136,134,144,136,144z"/>
		</g>
	</g>
	<path id="hand-right_6_" opacity="0.1" fill="#E519A1" d="M44,132c0,4,4,12,6,12c2.236,0,0-6,2-6s2,6,4,6s4-8,4-12
		C60,125,44,127,44,132z"/>
	<path id="hand-left_6_" opacity="0.1" fill="#E519A1" d="M148,132c0,4-4,12-6,12c-2.236,0,0-6-2-6s-2,6-4,6s-4-8-4-12
		C132,125,148,127,148,132z"/>
</g>
</svg>
