<?xml version="1.0" encoding="UTF-8" standalone="no"?>
<svg width="40px" height="40px" viewBox="0 0 40 40" version="1.1" xmlns="http://www.w3.org/2000/svg" xmlns:xlink="http://www.w3.org/1999/xlink" xmlns:sketch="http://www.bohemiancoding.com/sketch/ns">
    <!-- Generator: Sketch 3.1.1 (8761) - http://www.bohemiancoding.com/sketch -->
    <title>home</title>
    <desc>Created with Sketch.</desc>
    <defs></defs>
    <g id="Page-1" stroke="none" stroke-width="1" fill="none" fill-rule="evenodd" sketch:type="MSPage">
        <g id="home" sketch:type="MSArtboardGroup" stroke="#333333" stroke-width="2">
            <g id="icon" sketch:type="MSLayerGroup">
                <path d="M20,24 C22.209139,24 24,22.209139 24,20 C24,17.790861 22.209139,16 20,16 C19.6446659,16 19.3001535,16.0463329 18.9721746,16.1332868 C17.2610836,16.586932 16,18.1461951 16,20 C16,22.209139 17.790861,24 20,24 Z" id="circle_4" sketch:type="MSShapeGroup"></path>
                <path d="M20,31 C26.0751322,31 31,26.0751322 31,20 C31,13.9248678 26.0751322,9 20,9 C19.0228313,9 18.0754222,9.12741547 17.1734802,9.3665387 C12.4679798,10.6140629 9,14.9020364 9,20 C9,26.0751322 13.9248678,31 20,31 Z" id="circle_2" sketch:type="MSShapeGroup"></path>
            </g>
        </g>
    </g>
</svg>