<?xml version="1.0" encoding="UTF-8" standalone="no"?>
<svg width="160px" height="40px" viewBox="0 0 160 40" version="1.1" xmlns="http://www.w3.org/2000/svg" xmlns:xlink="http://www.w3.org/1999/xlink" xmlns:sketch="http://www.bohemiancoding.com/sketch/ns">
    <!-- Generator: Sketch 3.1.1 (8761) - http://www.bohemiancoding.com/sketch -->
    <title>hr</title>
    <desc>Created with Sketch.</desc>
    <defs></defs>
    <g id="Page-1" stroke="none" stroke-width="1" fill="none" fill-rule="evenodd" sketch:type="MSPage">
        <g id="hr" sketch:type="MSArtboardGroup" fill="#333333">
            <g id="icon" sketch:type="MSLayerGroup" transform="translate(80.000000, 15.911688) rotate(-225.000000) translate(-80.000000, -15.911688) translate(44.000000, -20.088312)">
                <path d="M14,1.58578644 L-4.4408921e-14,1.58578644 L-4.4408921e-14,-0.414213562 L15,-0.414213562 L16,-0.414213562 L16,15.5857864 L14,15.5857864 L14,1.58578644 Z" id="arrow" sketch:type="MSShapeGroup"></path>
                <path d="M28,15.5857864 L14,15.5857864 L14,13.5857864 L29,13.5857864 L30,13.5857864 L30,29.5857864 L28,29.5857864 L28,15.5857864 Z" id="arrow" sketch:type="MSShapeGroup"></path>
                <path d="M42,29.5857864 L28,29.5857864 L28,27.5857864 L43,27.5857864 L44,27.5857864 L44,43.5857864 L42,43.5857864 L42,29.5857864 Z" id="arrow" sketch:type="MSShapeGroup"></path>
                <path d="M56,43.5857864 L42,43.5857864 L42,41.5857864 L57,41.5857864 L58,41.5857864 L58,57.5857864 L56,57.5857864 L56,43.5857864 Z" id="arrow" sketch:type="MSShapeGroup"></path>
                <path d="M70,57.5857864 L56,57.5857864 L56,55.5857864 L71,55.5857864 L72,55.5857864 L72,71.5857864 L70,71.5857864 L70,57.5857864 Z" id="arrow" sketch:type="MSShapeGroup"></path>
            </g>
        </g>
    </g>
</svg>